<?xml version="1.0" standalone="no"?>
<!DOCTYPE svg PUBLIC "-//W3C//DTD SVG 20010904//EN"
 "http://www.w3.org/TR/2001/REC-SVG-20010904/DTD/svg10.dtd">
<svg version="1.0" xmlns="http://www.w3.org/2000/svg"
 width="874.000000pt" height="441.000000pt" viewBox="0 0 874.000000 441.000000"
 preserveAspectRatio="xMidYMid meet">

<g transform="translate(0.000000,441.000000) scale(0.100000,-0.100000)"
fill="#000000" stroke="none">
<path d="M0 2205 l0 -2205 4370 0 4370 0 0 2205 0 2205 -4370 0 -4370 0 0
-2205z m8730 5 l0 -2180 -4360 0 -4360 0 0 2180 0 2180 4360 0 4360 0 0 -2180z"/>
<path d="M4607 2943 c-2 -4 -14 -51 -26 -103 -80 -345 -185 -637 -267 -746
-22 -28 -24 -35 -11 -40 9 -3 13 -11 11 -19 -13 -32 126 -47 193 -20 l38 15
70 270 c38 149 73 270 77 270 12 0 77 -134 118 -242 20 -54 40 -95 43 -91 4 3
7 -3 7 -15 0 -12 4 -22 9 -22 14 0 65 85 115 190 24 52 45 88 45 80 1 -25 99
-348 116 -385 44 -92 138 -138 235 -115 68 16 75 28 43 75 -92 136 -251 604
-278 818 -5 42 -11 54 -21 50 -9 -3 -14 2 -14 18 -1 23 -2 22 -31 -11 -44 -50
-91 -152 -145 -312 -25 -77 -50 -136 -54 -131 -3 4 -17 37 -30 73 -12 36 -42
105 -66 153 -62 127 -163 264 -177 240z"/>
<path d="M792 2819 c-38 -241 -156 -594 -243 -730 l-30 -47 28 -30 c56 -61
178 -64 237 -5 33 33 42 59 90 249 l42 167 41 -69 c22 -38 62 -98 89 -134 l47
-64 17 49 c35 102 156 314 170 298 4 -4 28 -110 53 -235 51 -249 60 -270 126
-288 47 -13 110 -13 150 1 17 6 31 13 31 15 0 3 -11 21 -25 42 -44 67 -73 155
-140 428 -71 291 -102 397 -115 389 -4 -3 -10 5 -13 17 l-6 22 -26 -24 c-72
-67 -206 -283 -247 -396 l-22 -63 -43 122 c-53 152 -111 269 -160 326 l-38 43
-13 -83z"/>
<path d="M4180 2802 l0 -59 -107 -6 c-58 -4 -132 -7 -165 -7 l-58 0 0 -48 c0
-91 13 -203 23 -199 6 2 9 45 8 103 l-2 101 62 7 c34 3 92 6 128 6 36 0 83 3
104 6 l37 7 0 73 c0 59 -3 74 -15 74 -12 0 -15 -13 -15 -58z"/>
<path d="M6640 2854 c0 -5 10 -25 23 -44 22 -35 22 -38 20 -372 -1 -324 -2
-339 -22 -372 -25 -39 -27 -66 -6 -66 8 0 12 -6 9 -13 -4 -11 13 -16 72 -20
110 -10 182 -9 189 3 3 5 -6 30 -21 55 l-26 46 -10 329 c-9 318 -9 330 11 372
19 42 19 43 1 46 -12 2 -17 9 -13 18 4 11 -6 14 -49 14 -30 0 -83 3 -117 6
-34 4 -61 3 -61 -2z"/>
<path d="M2878 2783 c-4 -68 -8 -70 -137 -72 l-83 -1 6 -42 c9 -68 28 -627 21
-649 -5 -16 -16 -19 -71 -19 -48 0 -64 -3 -64 -14 0 -25 59 -34 130 -19 l33 6
-6 296 c-4 163 -10 322 -13 354 l-7 57 94 0 c52 0 100 4 106 8 16 10 28 91 19
126 -11 44 -25 29 -28 -31z"/>
<path d="M3061 2698 c1 -149 7 -199 24 -205 6 -2 9 58 7 172 -2 145 -5 175
-17 175 -13 0 -15 -24 -14 -142z"/>
<path d="M2094 2820 c2 -8 21 -52 41 -98 68 -156 98 -283 130 -557 21 -181 23
-169 -25 -162 -34 4 -40 2 -40 -13 0 -13 11 -19 48 -23 26 -3 51 -2 55 3 11
10 -28 335 -55 460 -21 102 -80 261 -129 350 -17 30 -28 48 -25 40z"/>
<path d="M5866 2813 c2 -10 42 -185 89 -388 47 -204 85 -378 85 -386 0 -17
-39 -39 -68 -39 -14 0 -14 -3 4 -21 20 -19 23 -20 58 -5 20 8 36 22 36 30 0 8
-40 189 -90 403 -49 213 -90 396 -90 406 0 9 -6 17 -14 17 -8 0 -12 -7 -10
-17z"/>
<path d="M6540 2786 c0 -41 -2 -44 -31 -50 -17 -3 -67 -6 -111 -6 -71 0 -79
-2 -74 -17 8 -26 26 -426 26 -580 l0 -133 -70 0 c-54 0 -70 -3 -70 -14 0 -20
52 -29 116 -21 l54 6 0 107 c0 92 -17 539 -23 597 -2 19 4 20 96 20 75 1 100
4 107 15 11 17 13 80 4 104 -12 30 -24 16 -24 -28z"/>
<path d="M3573 2428 c4 -205 4 -383 1 -395 -5 -19 -13 -23 -48 -23 -72 0 -116
-11 -116 -29 0 -14 12 -15 92 -11 92 5 92 5 100 35 5 17 6 110 2 210 -4 99 -6
271 -5 383 3 188 2 202 -15 202 -16 0 -17 -20 -11 -372z"/>
<path d="M7521 2790 c8 -84 -14 -98 -127 -76 l-79 16 -65 -33 c-105 -52 -149
-143 -130 -264 9 -50 49 -146 72 -168 6 -5 1 8 -10 30 -33 66 -45 147 -32 209
14 67 50 115 118 156 46 29 58 32 100 26 136 -18 152 -19 167 -6 20 16 19 81
0 106 -11 14 -15 15 -14 4z"/>
<path d="M8287 2741 c-8 -40 -31 -45 -126 -27 -91 17 -125 11 -142 -27 -9 -19
-7 -31 5 -56 20 -37 25 -39 19 -7 -3 16 3 32 17 46 24 24 23 24 176 4 61 -8
87 11 82 59 -4 40 -24 46 -31 8z"/>
<path d="M1931 2721 c-7 -5 -22 -55 -32 -112 -47 -253 -47 -254 -36 -261 7 -4
15 -4 18 0 3 4 18 77 34 162 15 85 33 161 38 168 7 9 28 13 63 10 l53 -3 -21
23 c-22 23 -89 31 -117 13z"/>
<path d="M6010 2710 c0 -19 5 -20 88 -16 48 2 90 5 95 5 4 1 7 8 7 16 0 12
-17 15 -95 15 -88 0 -95 -1 -95 -20z"/>
<path d="M5672 2686 c-51 -59 -96 -202 -90 -292 4 -62 28 -73 28 -12 0 95 58
249 108 289 20 16 36 20 64 16 35 -5 37 -3 27 14 -7 15 -21 19 -58 19 -43 0
-53 -4 -79 -34z"/>
<path d="M2340 2679 c0 -19 4 -21 31 -15 17 3 60 6 95 6 50 0 64 3 64 15 0 12
-17 15 -95 15 -90 0 -95 -1 -95 -21z"/>
<path d="M7960 2490 c27 -26 92 -65 165 -100 111 -53 117 -55 82 -25 -21 18
-74 48 -118 65 -43 18 -100 48 -127 67 l-47 34 45 -41z"/>
<path d="M4173 2451 c5 -22 -2 -24 -195 -43 l-128 -12 0 -108 c0 -89 3 -108
15 -108 12 0 15 17 15 89 l0 88 38 6 c20 3 92 11 160 18 l122 13 0 38 c0 28
-4 38 -16 38 -11 0 -15 -6 -11 -19z"/>
<path d="M8375 2325 c30 -85 13 -163 -52 -235 -91 -101 -217 -114 -546 -55
-24 4 -26 2 -18 -13 13 -25 313 -68 398 -57 138 16 236 99 258 218 9 44 -9
123 -35 157 l-19 25 14 -40z"/>
<path d="M3195 2330 l-130 -5 3 -40 c6 -91 22 -242 28 -262 6 -22 4 -23 -60
-23 -52 0 -66 -3 -66 -15 0 -8 11 -17 25 -21 32 -8 137 5 130 16 -4 6 -35 274
-35 301 0 4 60 8 133 11 73 2 138 8 145 12 18 11 2 36 -22 34 -11 -1 -79 -5
-151 -8z"/>
<path d="M1816 2153 c-26 -147 -26 -148 -69 -148 -47 0 -47 -11 -1 -32 61 -30
69 -14 109 211 l6 39 155 -5 c140 -5 155 -4 152 11 -3 14 -25 16 -169 19
l-167 2 -16 -97z"/>
<path d="M5583 2240 c-22 -9 -23 -14 -23 -125 0 -66 -4 -114 -9 -111 -5 3 -23
3 -40 0 -22 -5 -31 -12 -29 -23 2 -9 11 -16 21 -15 9 0 33 1 52 2 l34 2 3 118
3 117 150 6 c83 4 151 7 153 8 1 0 2 8 2 16 0 13 -23 15 -147 14 -82 0 -158
-4 -170 -9z"/>
<path d="M7716 2213 c9 -32 -55 -114 -116 -151 -123 -73 -254 -82 -370 -25
-36 17 -85 49 -110 69 l-45 38 35 -37 c51 -55 147 -113 218 -133 53 -15 74
-16 132 -7 125 20 217 75 264 160 27 47 27 72 1 93 -11 9 -12 7 -9 -7z"/>
<path d="M4230 2096 l0 -73 -197 -7 c-236 -8 -265 -12 -261 -35 2 -10 12 -15
28 -13 14 1 123 5 243 9 l217 6 0 93 c0 77 -3 94 -15 94 -12 0 -15 -15 -15
-74z"/>
</g>
</svg>
